<svg xmlns="http://www.w3.org/2000/svg" width="90" height="84" viewBox="0 0 90 84" fill="none">
  <path fill-rule="evenodd" clip-rule="evenodd" d="M66.8554 55.7932C68.7695 55.7932 70.4999 55.0197 71.7538 53.7659C73.0077 52.512 73.7811 50.7815 73.7811 48.8675C73.7811 46.9534 73.0076 45.223 71.7538 43.9691C70.4999 42.7152 68.7694 41.9418 66.8554 41.9418C64.9413 41.9418 63.2109 42.7152 61.957 43.9691C60.7031 45.223 59.9297 46.9535 59.9297 48.8675C59.9297 50.7816 60.7031 52.512 61.957 53.7659C63.2109 55.0198 64.9453 55.7932 66.8554 55.7932ZM7.95736 25.9182C7.43002 25.9182 7.00033 25.4885 7.00033 24.9611C7.00033 24.4338 7.43002 24.0041 7.95736 24.0041H28.1874C28.7147 24.0041 29.1444 24.4338 29.1444 24.9611C29.1444 25.4885 28.7147 25.9182 28.1874 25.9182H7.95736ZM7.95736 19.676C7.43002 19.676 7.00033 19.2463 7.00033 18.7189C7.00033 18.1916 7.43002 17.7619 7.95736 17.7619H23.2384C23.7657 17.7619 24.1954 18.1916 24.1954 18.7189C24.1954 19.2463 23.7657 19.676 23.2384 19.676H7.95736ZM7.95736 13.219C7.43002 13.219 7.00033 12.7893 7.00033 12.2619C7.00033 11.7346 7.43002 11.3049 7.95736 11.3049H23.2384C23.7657 11.3049 24.1954 11.7346 24.1954 12.2619C24.1954 12.7893 23.7657 13.219 23.2384 13.219H7.95736ZM5.46516 30.699C8.62926 33.8631 12.9964 35.8162 17.8242 35.8162C18.2382 35.8162 18.6327 35.8045 19.0078 35.7771C19.414 35.7498 19.8085 35.7107 20.1836 35.6599C20.3164 35.6404 20.4609 35.6521 20.5976 35.6951L31.2736 39.0935L28.9103 32.738C28.7463 32.363 28.84 31.9138 29.1642 31.6325C31.0783 29.9997 32.633 27.9606 33.6994 25.6481C34.7228 23.4254 35.2971 20.9489 35.2971 18.3356C35.2971 13.5114 33.3401 9.14028 30.1799 5.97657C27.0158 2.81247 22.6487 0.859375 17.8209 0.859375C12.9967 0.859375 8.62563 2.81637 5.46193 5.97657C2.29783 9.14067 0.344727 13.5078 0.344727 18.3356C0.344727 23.1676 2.30106 27.5391 5.46516 30.699ZM61.4262 25.9178C60.8988 25.9178 60.4691 25.4881 60.4691 24.9607C60.4691 24.4334 60.8988 24.0037 61.4262 24.0037H81.6562C82.1835 24.0037 82.6132 24.4334 82.6132 24.9607C82.6132 25.4881 82.1835 25.9178 81.6562 25.9178H61.4262ZM61.4262 19.6756C60.8988 19.6756 60.4691 19.2459 60.4691 18.7185C60.4691 18.1912 60.8988 17.7615 61.4262 17.7615H76.7072C77.2345 17.7615 77.6642 18.1912 77.6642 18.7185C77.6642 19.2459 77.2345 19.6756 76.7072 19.6756H61.4262ZM61.4262 13.2186C60.8988 13.2186 60.4691 12.7889 60.4691 12.2615C60.4691 11.7342 60.8988 11.3045 61.4262 11.3045H76.7072C77.2345 11.3045 77.6642 11.7342 77.6642 12.2615C77.6642 12.7889 77.2345 13.2186 76.7072 13.2186H61.4262ZM72.1802 35.8166C77.0044 35.8166 81.3755 33.8596 84.5392 30.6994C87.7033 27.5353 89.6564 23.1682 89.6564 18.3404C89.6564 13.5162 87.6994 9.14507 84.5392 5.98137C81.3751 2.81727 77.008 0.864171 72.1802 0.864171C67.356 0.864171 62.9849 2.82117 59.8212 5.98137C56.6571 9.14547 54.704 13.5126 54.704 18.3404C54.704 20.9537 55.2743 23.4302 56.3017 25.6529C57.3681 27.9654 58.9228 30.0045 60.8369 31.6373C61.1611 31.9146 61.2548 32.3677 61.0908 32.7428L58.7275 39.0983L69.4035 35.6999C69.5402 35.6569 69.6808 35.6452 69.8175 35.6647C70.1964 35.7155 70.5871 35.7546 70.9933 35.7819C71.3683 35.8053 71.7622 35.8166 72.1802 35.8166ZM63.4614 76.2696C62.6801 71.9376 60.4106 68.1212 57.1997 65.3716C53.9224 62.563 49.6606 60.8677 45.0007 60.8677C40.3408 60.8677 36.0788 62.563 32.8017 65.3716C29.5908 68.1216 27.3212 71.938 26.54 76.2696C28.7119 78.3477 31.4345 80.0508 34.5322 81.2423C37.6884 82.4532 41.2392 83.1368 45.0052 83.1368C48.7669 83.1368 52.3216 82.4571 55.4782 81.2423C58.572 80.0509 61.2946 78.3478 63.4626 76.2696H63.4614ZM58.4419 63.9176C57.6294 63.2223 56.7622 62.5895 55.8521 62.0231C57.149 60.7614 58.6646 59.7223 60.3365 58.9684C62.2935 58.0856 64.4654 57.5973 66.7545 57.5973C70.6373 57.5973 74.1881 59.0114 76.9225 61.3512C79.5787 63.6246 81.4616 66.777 82.1256 70.3551C80.3209 72.0621 78.0709 73.4684 75.5123 74.4489C72.8756 75.4606 69.9068 76.0309 66.7584 76.0309C66.3091 76.0309 65.899 76.0231 65.5279 76.0035C65.4732 75.9996 65.4146 75.9996 65.3599 75.9957C64.5083 71.1949 61.9966 66.9644 58.4419 63.9176ZM24.6449 75.9996C24.5902 76.0035 24.5316 76.0074 24.4769 76.0074C24.1058 76.0269 23.6995 76.0347 23.2464 76.0347C20.098 76.0347 17.1292 75.4644 14.4886 74.4527C11.93 73.4683 9.67999 72.066 7.87529 70.3589C8.53935 66.7808 10.4222 63.6323 13.0784 61.355C15.8089 59.0152 19.3596 57.6011 23.2464 57.6011C25.5355 57.6011 27.7073 58.0894 29.6644 58.9722C31.3402 59.7261 32.8558 60.7652 34.1488 62.0269C33.2347 62.5933 32.3715 63.2261 31.559 63.9214C28.0043 66.9644 25.4926 71.195 24.6449 75.9996ZM45.1219 58.7846C47.4461 58.7846 49.5477 57.8432 51.0711 56.3198C52.5945 54.7964 53.5359 52.6948 53.5359 50.3706C53.5359 48.0464 52.5945 45.9448 51.0711 44.4214C49.5477 42.898 47.4461 41.9566 45.1219 41.9566C42.7977 41.9566 40.6961 42.898 39.1727 44.4214C37.6493 45.9448 36.7079 48.0464 36.7079 50.3706C36.7079 52.6948 37.6493 54.7964 39.1727 56.3198C40.6961 57.8432 42.8016 58.7846 45.1219 58.7846ZM23.3519 55.7924C25.266 55.7924 26.9964 55.0189 28.2503 53.7651C29.5042 52.5112 30.2776 50.7807 30.2776 48.8667C30.2776 46.9526 29.5041 45.2222 28.2503 43.9683C26.9964 42.7144 25.2659 41.941 23.3519 41.941C21.4378 41.941 19.7074 42.7144 18.4535 43.9683C17.1996 45.2221 16.4262 46.9527 16.4262 48.8667C16.4262 50.7808 17.1996 52.5112 18.4535 53.7651C19.7073 55.019 21.4379 55.7924 23.3519 55.7924Z" fill="black"/>
</svg>