<svg xmlns="http://www.w3.org/2000/svg" viewBox="0 0 109 24" fill="none">
  <path d="M12 22.5C17.799 22.5 22.5 17.799 22.5 12C22.5 6.20101 17.799 1.5 12 1.5C6.20101 1.5 1.5 6.20101 1.5 12C1.5 17.799 6.20101 22.5 12 22.5Z" stroke="white" stroke-width="3" stroke-dasharray="0.94 0.94"/>
  <path d="M34.0117 20.9996V3.54501H40.0798C41.4378 3.54501 42.5571 3.79217 43.4378 4.28649C44.3242 4.78081 44.9833 5.45126 45.4151 6.29786C45.8469 7.13876 46.0628 8.08476 46.0628 9.13596C46.0628 10.1871 45.8469 11.136 45.4151 11.9826C44.9833 12.8291 44.327 13.5024 43.4463 14.0024C42.5656 14.4968 41.4463 14.7439 40.0884 14.7439H35.8355V12.6899H39.935C40.8327 12.6899 41.5571 12.5337 42.1083 12.2212C42.6594 11.9087 43.06 11.4854 43.31 10.9513C43.5656 10.4172 43.6935 9.81206 43.6935 9.13596C43.6935 8.45406 43.5656 7.84896 43.31 7.32056C43.06 6.78646 42.6566 6.36886 42.0997 6.06776C41.5429 5.76092 40.81 5.60751 39.9009 5.60751H36.3895V20.9996H34.0117ZM48.7183 20.9996V7.90866H50.9257V9.93706H51.062C51.3007 9.26096 51.7268 8.72116 52.3404 8.31776C52.9598 7.90866 53.6558 7.70406 54.4285 7.70406C54.5819 7.70406 54.7666 7.70976 54.9825 7.72116C55.2041 7.72686 55.3774 7.73816 55.5024 7.75526V9.99676C55.4171 9.97396 55.2467 9.94556 54.991 9.91146C54.741 9.87176 54.4853 9.85186 54.224 9.85186C53.6046 9.85186 53.0507 9.98256 52.562 10.2439C52.0791 10.4996 51.6984 10.8547 51.42 11.3093C51.1416 11.7638 51.0024 12.2808 51.0024 12.8604V20.9996H48.7183ZM57.4526 20.9996V7.90866H59.7367V20.9996H57.4526ZM58.6117 5.81206C58.1969 5.81206 57.839 5.67001 57.5378 5.38592C57.2424 5.10183 57.0946 4.76092 57.0946 4.3632C57.0946 3.97115 57.2424 3.63308 57.5378 3.34899C57.839 3.0649 58.1969 2.92285 58.6117 2.92285C59.0265 2.92285 59.3816 3.0649 59.677 3.34899C59.9782 3.63308 60.1287 3.97115 60.1287 4.3632C60.1287 4.76092 59.9782 5.10183 59.677 5.38592C59.3816 5.67001 59.0265 5.81206 58.6117 5.81206ZM73.9128 7.90866L69.1145 20.9996H66.7281L61.9298 7.90866H64.3843L67.8531 18.1615H67.9895L71.4497 7.90866H73.9128ZM79.5299 21.2979C78.7003 21.2979 77.9475 21.1416 77.2714 20.8291C76.6009 20.5166 76.0668 20.0649 75.6691 19.474C75.277 18.8774 75.081 18.1502 75.081 17.2922C75.081 16.5479 75.2259 15.9399 75.5157 15.4684C75.8111 14.9911 76.2032 14.6161 76.6918 14.3434C77.1804 14.0706 77.7231 13.8661 78.3197 13.7297C78.9162 13.5934 79.5214 13.4882 80.135 13.4144C80.9248 13.3121 81.564 13.2326 82.0526 13.1757C82.5469 13.1189 82.9077 13.0252 83.135 12.8945C83.3623 12.7638 83.4759 12.5394 83.4759 12.2212V12.153C83.4759 11.3632 83.2572 10.7496 82.8197 10.3121C82.3822 9.87456 81.7259 9.65576 80.8509 9.65576C79.9418 9.65576 79.2287 9.85466 78.7117 10.2524C78.1947 10.6502 77.831 11.0848 77.6208 11.5564L75.4731 10.9428C75.7856 10.1473 76.2202 9.51656 76.777 9.05066C77.3395 8.57906 77.9674 8.24386 78.6606 8.04506C79.3594 7.84046 80.0725 7.73816 80.7998 7.73816C81.2714 7.73816 81.7912 7.79506 82.3594 7.90866C82.9276 8.01656 83.4674 8.22966 83.9787 8.54786C84.4958 8.86036 84.9219 9.32346 85.2572 9.93706C85.5924 10.5451 85.76 11.3462 85.76 12.3405V20.9996H83.51V19.2184H83.4077C83.26 19.5252 83.0242 19.8405 82.7003 20.1644C82.3765 20.4826 81.9532 20.7524 81.4304 20.974C80.9077 21.1899 80.2742 21.2979 79.5299 21.2979ZM79.956 19.3718C80.7117 19.3718 81.3509 19.224 81.8736 18.9286C82.3964 18.6331 82.7941 18.2496 83.0668 17.778C83.3452 17.3064 83.4844 16.8036 83.4844 16.2695V14.5053C83.3935 14.6019 83.2117 14.6899 82.939 14.7695C82.6662 14.849 82.3537 14.9172 82.0015 14.974C81.6549 15.0308 81.314 15.082 80.9787 15.1274C80.6492 15.1672 80.3765 15.2013 80.1606 15.2297C79.6549 15.2979 79.1861 15.4058 78.7543 15.5536C78.3282 15.7013 77.9844 15.9201 77.7231 16.2098C77.4674 16.4939 77.3395 16.8774 77.3395 17.3604C77.3395 18.0252 77.5867 18.528 78.081 18.8689C78.5753 19.2041 79.2003 19.3718 79.956 19.3718ZM94.8587 7.90866V9.78366H87.8956V7.90866H94.8587ZM89.8388 4.77229H92.1229V17.207C92.1229 17.7354 92.1996 18.1331 92.353 18.4002C92.5121 18.6615 92.7166 18.8377 92.9666 18.9286C93.2166 19.0195 93.4865 19.0649 93.7763 19.0649C93.9865 19.0649 94.1655 19.0536 94.3132 19.0308C94.4609 19.0024 94.5774 18.9797 94.6626 18.9627L95.0973 20.9144C94.9552 20.9655 94.7535 21.0195 94.4922 21.0763C94.2365 21.1388 93.9126 21.1701 93.5206 21.1701C92.9013 21.1757 92.3104 21.0564 91.7479 20.8121C91.1854 20.5621 90.7251 20.1814 90.3672 19.6701C90.0149 19.1587 89.8388 18.5138 89.8388 17.7354V4.77229ZM102.885 21.2723C101.607 21.2723 100.507 20.9939 99.5873 20.4371C98.6668 19.8746 97.9566 19.0905 97.4566 18.0848C96.9623 17.0735 96.7151 15.8945 96.7151 14.5479C96.7151 13.207 96.9623 12.0252 97.4566 11.0024C97.9566 9.97396 98.6526 9.17286 99.5447 8.59896C100.442 8.02516 101.49 7.73816 102.689 7.73816C103.399 7.73816 104.093 7.85756 104.769 8.09616C105.451 8.32906 106.064 8.70406 106.61 9.22116C107.161 9.73256 107.596 10.4058 107.914 11.2411C108.238 12.0763 108.399 13.0962 108.399 14.3007V15.1786H98.1469V13.3547H106.124C106.124 12.6502 105.982 12.0252 105.698 11.4797C105.419 10.9286 105.022 10.4939 104.505 10.1757C103.993 9.85756 103.391 9.69846 102.698 9.69846C101.936 9.69846 101.277 9.88306 100.721 10.2524C100.169 10.6218 99.7435 11.1047 99.4424 11.7013C99.1413 12.2979 98.9907 12.9399 98.9907 13.6274V14.9485C98.9907 15.8803 99.1526 16.6729 99.4765 17.3263C99.806 17.974 100.263 18.4683 100.848 18.8093C101.434 19.1445 102.115 19.3121 102.894 19.3121C103.399 19.3121 103.86 19.2411 104.274 19.099C104.689 18.9513 105.044 18.7326 105.34 18.4428C105.641 18.153 105.874 17.7894 106.039 17.3519L108.221 17.8462C108.022 18.528 107.675 19.1274 107.181 19.6445C106.692 20.1558 106.081 20.5564 105.348 20.8462C104.621 21.1303 103.8 21.2723 102.885 21.2723Z" fill="white"/>
</svg>